<?xml version="1.0" encoding="utf-8"?>
<!-- Generator: Adobe Illustrator 26.0.1, SVG Export Plug-In . SVG Version: 6.00 Build 0)  -->
<svg version="1.1" id="Layer_1" xmlns="http://www.w3.org/2000/svg" xmlns:xlink="http://www.w3.org/1999/xlink" x="0px" y="0px"
	 viewBox="0 0 403 162.3" style="enable-background:new 0 0 403 162.3;" xml:space="preserve">
<style type="text/css">
	.st0{fill:#050505;}
	.st1{fill:#4D4D4D;}
</style>
<g>
	<path class="st0" d="M143.1,65.5c-0.3,0-0.6,0.1-0.9,0.1c-7.5-18.5-14.9-37.1-22.4-55.7c-4.7,0-9.1,0-14,0c0,30.8,0,61.1,0,91.6
		c4.6,0,9,0,13.7,0c0-18.6,0-37,0-55.3c0.3-0.1,0.7-0.2,1-0.3c7.5,18.6,15,37.2,22.4,55.6c5,0,9.4,0,13.8,0c0-30.7,0-61.1,0-91.6
		c-4.6,0-8.8,0-13.7,0C143.1,28.6,143.1,47,143.1,65.5z"/>
	<path class="st0" d="M333.7,39.1c-0.1-3.2,0-6.3-0.2-9.5c-0.6-10.3-6.9-18.2-17-19.1c-9.9-0.9-19.9-0.2-30-0.2
		c0,30.4,0,60.9,0,91.2c4.8,0,9.2,0,13.8,0c0-13.1,0-25.9,0-38.7c3,0,5.7,0,8.3,0c4.6,13.2,9,26,13.4,38.8c4.9,0,9.5,0,14.3,0
		c-5.1-14.1-10-27.8-15.1-42C330.7,55.7,333.8,48.3,333.7,39.1z M320,39.6c-0.1,5.8-3.9,10.1-9.6,10.7c-3.3,0.3-6.6,0.1-10,0.1
		c0-9.6,0-18.9,0-28.5c4.4,0,8.9-0.7,13.1,0.2c4.6,0.9,6.1,5.3,6.5,9.6C320.2,34.3,320.1,37,320,39.6z"/>
	<path class="st0" d="M58.3,35.7c1.7-12.4-4-22.3-14.7-25.8c-6-2-12.1-2-18.1-0.2c-9.7,2.9-15.4,10.2-15.5,20.8
		c-0.3,17.3-0.1,34.6,0,52c0,2.3,0.4,4.7,1.1,6.9c2.3,7.7,7.4,12.4,15.5,13.5c8,1,15.3-0.1,20.8-6.7c0.2-0.3,0.9-0.3,1.3-0.4
		c1,2,2,3.9,3,5.7c2.4,0,4.7,0,6.9,0c0-16.7,0-33.1,0-49.7c-8.6,0-16.8,0-25.3,0c0,3.9,0,7.6,0,11.7c3.8,0,7.4,0,11.1,0
		c0,6.5,0.4,12.6-0.1,18.7c-0.5,5.2-4.9,8.3-10.3,8.2c-5.3,0-8.6-2.7-9.7-8.1c-0.3-1.5-0.5-3-0.5-4.4c0-14.7-0.1-29.3,0-44
		c0-2,0.3-4,0.8-5.9c1.4-4.5,6-7.2,11-6.8c5.3,0.5,8.6,3.6,9.2,8.8c0.2,1.8,0,3.6,0,5.7C49.4,35.7,53.7,35.7,58.3,35.7z"/>
	<path class="st0" d="M374.4,10.2c-4.4,0-8.5,0-12.5,0c-7.1,30.7-14.2,60.9-21.3,91.5c4.9,0,9.2,0,13.8,0c1.6-6.5,3.2-12.8,4.8-19.3
		c6.1,0,11.8,0,17.9,0c1.5,6.5,3.1,12.9,4.6,19.3c4.5,0,8.8,0,13.8,0C388.4,70.8,381.4,40.5,374.4,10.2z M360.5,70.2
		c2.3-11.2,4.6-22.1,6.9-33c0.3,0,0.7,0,1,0c2.3,10.9,4.6,21.9,7,33C370.4,70.2,365.8,70.2,360.5,70.2z"/>
	<path class="st0" d="M250,72.8c-0.3,0-0.5,0-0.8,0c-3.9-21-7.7-41.9-11.6-62.9c-5.3,0-10,0-15.2,0c7,30.8,13.9,61.3,20.8,91.7
		c4.3,0,8.1,0,12.4,0c6.9-30.5,13.8-61,20.7-91.7c-5,0-9.6,0-14.4,0C257.9,31,253.9,51.9,250,72.8z"/>
	<path class="st0" d="M75.2,101.6c4.6,0,8.8,0,13.6,0c0-30.7,0-61.1,0-91.6c-4.7,0-9.1,0-13.6,0C75.2,40.7,75.2,71.1,75.2,101.6z"/>
	<path class="st0" d="M216.1,99.4c0-3.1,0-6.2,0-9.7c-9.4,0-18.5,0-27.8,0c0-9.6,0-18.8,0-28.4c8.2,0,16.1,0,23.8,0
		c0-4.2,0-7.9,0-12.1c-8.2,0-16.1,0-23.8,0c0-9.3,0-18,0-27.3c9.2,0,18.1,0,27.1,0c0-4.2,0-7.9,0-11.8c-13.9,0-27.4,0-41,0
		c0,30.7,0,61.1,0,91.8c13.5,0,26.8,0,40.1-0.1c0.5,0,1.1-0.8,1.6-1.3h0C216.1,100.1,216.1,99.8,216.1,99.4L216.1,99.4z"/>
</g>
<g>
	<path class="st1" d="M56.7,142.7h-3.1v-23.6h3.1V142.7z"/>
	<path class="st1" d="M64.8,125.1l0.1,2.2c1.3-1.7,3.1-2.5,5.3-2.5c3.7,0,5.6,2.1,5.6,6.3v11.6h-3v-11.6c0-1.3-0.3-2.2-0.9-2.8
		c-0.6-0.6-1.5-0.9-2.7-0.9c-1,0-1.8,0.3-2.6,0.8c-0.7,0.5-1.3,1.2-1.7,2v12.5h-3v-17.6H64.8z"/>
	<path class="st1" d="M84.3,120.9v4.3h3.3v2.3h-3.3v10.9c0,0.7,0.1,1.2,0.4,1.6c0.3,0.4,0.8,0.5,1.5,0.5c0.3,0,0.8-0.1,1.4-0.2v2.4
		c-0.8,0.2-1.6,0.3-2.3,0.3c-1.3,0-2.4-0.4-3-1.2c-0.7-0.8-1-2-1-3.5v-10.9h-3.2v-2.3h3.2v-4.3H84.3z"/>
	<path class="st1" d="M98.4,143c-2.4,0-4.3-0.8-5.8-2.3c-1.5-1.6-2.2-3.7-2.2-6.3v-0.6c0-1.7,0.3-3.3,1-4.7c0.7-1.4,1.6-2.4,2.8-3.2
		c1.2-0.8,2.5-1.2,3.9-1.2c2.3,0,4.1,0.8,5.3,2.3c1.3,1.5,1.9,3.7,1.9,6.5v1.2H93.4c0,1.7,0.5,3.1,1.5,4.2s2.2,1.6,3.7,1.6
		c1.1,0,2-0.2,2.7-0.6c0.7-0.4,1.4-1,1.9-1.7l1.8,1.4C103.6,141.9,101.4,143,98.4,143z M98,127.3c-1.2,0-2.2,0.4-3.1,1.3
		c-0.8,0.9-1.3,2.1-1.5,3.7h8.8v-0.2c-0.1-1.5-0.5-2.7-1.2-3.5C100.3,127.7,99.3,127.3,98,127.3z"/>
	<path class="st1" d="M117.2,127.8c-0.5-0.1-0.9-0.1-1.5-0.1c-2,0-3.3,0.8-4,2.5v12.5h-3v-17.6h2.9l0,2c1-1.6,2.4-2.4,4.2-2.4
		c0.6,0,1,0.1,1.3,0.2V127.8z"/>
	<path class="st1" d="M122.8,125.1l0.1,2.2c1.3-1.7,3.1-2.5,5.3-2.5c3.7,0,5.6,2.1,5.6,6.3v11.6h-3v-11.6c0-1.3-0.3-2.2-0.9-2.8
		c-0.6-0.6-1.5-0.9-2.7-0.9c-1,0-1.8,0.3-2.6,0.8c-0.7,0.5-1.3,1.2-1.7,2v12.5h-3v-17.6H122.8z"/>
	<path class="st1" d="M149.2,142.7c-0.2-0.3-0.3-1-0.4-1.9c-1.4,1.5-3.1,2.2-5,2.2c-1.7,0-3.2-0.5-4.3-1.5c-1.1-1-1.7-2.2-1.7-3.7
		c0-1.8,0.7-3.2,2.1-4.3c1.4-1,3.3-1.5,5.9-1.5h2.9v-1.4c0-1-0.3-1.9-0.9-2.5c-0.6-0.6-1.6-0.9-2.8-0.9c-1.1,0-2,0.3-2.7,0.8
		c-0.7,0.5-1.1,1.2-1.1,2h-3c0-0.9,0.3-1.7,0.9-2.5c0.6-0.8,1.5-1.5,2.5-1.9c1.1-0.5,2.2-0.7,3.5-0.7c2,0,3.6,0.5,4.8,1.5
		c1.1,1,1.7,2.4,1.8,4.2v8.1c0,1.6,0.2,2.9,0.6,3.8v0.3H149.2z M144.2,140.4c0.9,0,1.8-0.2,2.7-0.7s1.5-1.1,1.8-1.9v-3.6h-2.4
		c-3.7,0-5.5,1.1-5.5,3.2c0,0.9,0.3,1.7,0.9,2.2C142.4,140.1,143.2,140.4,144.2,140.4z"/>
	<path class="st1" d="M160.5,120.9v4.3h3.3v2.3h-3.3v10.9c0,0.7,0.1,1.2,0.4,1.6c0.3,0.4,0.8,0.5,1.5,0.5c0.3,0,0.8-0.1,1.4-0.2v2.4
		c-0.8,0.2-1.6,0.3-2.3,0.3c-1.3,0-2.4-0.4-3-1.2c-0.7-0.8-1-2-1-3.5v-10.9h-3.2v-2.3h3.2v-4.3H160.5z"/>
	<path class="st1" d="M167.3,120.5c0-0.5,0.1-0.9,0.4-1.2c0.3-0.3,0.7-0.5,1.3-0.5s1,0.2,1.3,0.5c0.3,0.3,0.5,0.7,0.5,1.2
		s-0.2,0.9-0.5,1.2c-0.3,0.3-0.7,0.5-1.3,0.5s-1-0.2-1.3-0.5C167.4,121.4,167.3,121,167.3,120.5z M170.5,142.7h-3v-17.6h3V142.7z"/>
	<path class="st1" d="M174.5,133.7c0-1.7,0.3-3.3,1-4.6c0.7-1.4,1.6-2.4,2.8-3.2c1.2-0.7,2.6-1.1,4.1-1.1c2.4,0,4.3,0.8,5.8,2.5
		c1.5,1.7,2.2,3.9,2.2,6.6v0.2c0,1.7-0.3,3.2-1,4.6s-1.6,2.4-2.8,3.2c-1.2,0.8-2.6,1.1-4.2,1.1c-2.4,0-4.3-0.8-5.8-2.5
		c-1.5-1.7-2.2-3.8-2.2-6.6V133.7z M177.5,134.1c0,1.9,0.5,3.5,1.4,4.7c0.9,1.2,2.1,1.8,3.6,1.8c1.5,0,2.7-0.6,3.6-1.8
		c0.9-1.2,1.3-2.9,1.3-5c0-1.9-0.5-3.5-1.4-4.7c-0.9-1.2-2.1-1.8-3.6-1.8c-1.5,0-2.7,0.6-3.6,1.8C178,130.2,177.5,131.9,177.5,134.1
		z"/>
	<path class="st1" d="M197.1,125.1l0.1,2.2c1.3-1.7,3.1-2.5,5.3-2.5c3.7,0,5.6,2.1,5.6,6.3v11.6h-3v-11.6c0-1.3-0.3-2.2-0.9-2.8
		c-0.6-0.6-1.5-0.9-2.7-0.9c-1,0-1.8,0.3-2.6,0.8c-0.7,0.5-1.3,1.2-1.7,2v12.5h-3v-17.6H197.1z"/>
	<path class="st1" d="M223.5,142.7c-0.2-0.3-0.3-1-0.4-1.9c-1.4,1.5-3.1,2.2-5,2.2c-1.7,0-3.2-0.5-4.3-1.5c-1.1-1-1.7-2.2-1.7-3.7
		c0-1.8,0.7-3.2,2.1-4.3c1.4-1,3.3-1.5,5.9-1.5h2.9v-1.4c0-1-0.3-1.9-0.9-2.5c-0.6-0.6-1.6-0.9-2.8-0.9c-1.1,0-2,0.3-2.7,0.8
		c-0.7,0.5-1.1,1.2-1.1,2h-3c0-0.9,0.3-1.7,0.9-2.5c0.6-0.8,1.5-1.5,2.5-1.9c1.1-0.5,2.2-0.7,3.5-0.7c2,0,3.6,0.5,4.8,1.5
		c1.1,1,1.7,2.4,1.8,4.2v8.1c0,1.6,0.2,2.9,0.6,3.8v0.3H223.5z M218.5,140.4c0.9,0,1.8-0.2,2.7-0.7s1.5-1.1,1.8-1.9v-3.6h-2.4
		c-3.7,0-5.5,1.1-5.5,3.2c0,0.9,0.3,1.7,0.9,2.2C216.7,140.1,217.5,140.4,218.5,140.4z"/>
	<path class="st1" d="M234,142.7h-3v-24.9h3V142.7z"/>
	<path class="st1" d="M256.1,133.1h-5.6v9.6h-3.1v-23.6h7.8c2.7,0,4.7,0.6,6.1,1.8c1.4,1.2,2.2,3,2.2,5.3c0,1.5-0.4,2.8-1.2,3.8
		c-0.8,1.1-1.9,1.9-3.3,2.5l5.6,10v0.2h-3.3L256.1,133.1z M250.6,130.6h4.8c1.5,0,2.8-0.4,3.7-1.2c0.9-0.8,1.4-1.9,1.4-3.2
		c0-1.5-0.4-2.6-1.3-3.4s-2.1-1.2-3.8-1.2h-4.8V130.6z"/>
	<path class="st1" d="M266.7,133.7c0-1.7,0.3-3.3,1-4.6c0.7-1.4,1.6-2.4,2.8-3.2c1.2-0.7,2.6-1.1,4.1-1.1c2.4,0,4.3,0.8,5.8,2.5
		c1.5,1.7,2.2,3.9,2.2,6.6v0.2c0,1.7-0.3,3.2-1,4.6s-1.6,2.4-2.8,3.2c-1.2,0.8-2.6,1.1-4.2,1.1c-2.4,0-4.3-0.8-5.8-2.5
		c-1.5-1.7-2.2-3.8-2.2-6.6V133.7z M269.7,134.1c0,1.9,0.5,3.5,1.4,4.7c0.9,1.2,2.1,1.8,3.6,1.8c1.5,0,2.7-0.6,3.6-1.8
		c0.9-1.2,1.3-2.9,1.3-5c0-1.9-0.5-3.5-1.4-4.7c-0.9-1.2-2.1-1.8-3.6-1.8c-1.5,0-2.7,0.6-3.6,1.8
		C270.1,130.2,269.7,131.9,269.7,134.1z"/>
	<path class="st1" d="M291.9,138.3l4.1-13.2h3.2l-7.1,20.3c-1.1,2.9-2.8,4.4-5.2,4.4l-0.6,0l-1.1-0.2v-2.4l0.8,0.1
		c1,0,1.8-0.2,2.4-0.6c0.6-0.4,1-1.2,1.4-2.3l0.7-1.8l-6.3-17.4h3.3L291.9,138.3z"/>
	<path class="st1" d="M312.5,142.7c-0.2-0.3-0.3-1-0.4-1.9c-1.4,1.5-3.1,2.2-5,2.2c-1.7,0-3.2-0.5-4.3-1.5c-1.1-1-1.7-2.2-1.7-3.7
		c0-1.8,0.7-3.2,2.1-4.3c1.4-1,3.3-1.5,5.9-1.5h2.9v-1.4c0-1-0.3-1.9-0.9-2.5c-0.6-0.6-1.6-0.9-2.8-0.9c-1.1,0-2,0.3-2.7,0.8
		c-0.7,0.5-1.1,1.2-1.1,2h-3c0-0.9,0.3-1.7,0.9-2.5c0.6-0.8,1.5-1.5,2.5-1.9c1.1-0.5,2.2-0.7,3.5-0.7c2,0,3.6,0.5,4.8,1.5
		c1.1,1,1.7,2.4,1.8,4.2v8.1c0,1.6,0.2,2.9,0.6,3.8v0.3H312.5z M307.5,140.4c0.9,0,1.8-0.2,2.7-0.7c0.8-0.5,1.5-1.1,1.8-1.9v-3.6
		h-2.4c-3.7,0-5.5,1.1-5.5,3.2c0,0.9,0.3,1.7,0.9,2.2C305.7,140.1,306.5,140.4,307.5,140.4z"/>
	<path class="st1" d="M323,142.7h-3v-24.9h3V142.7z"/>
	<path class="st1" d="M331.9,120.9v4.3h3.3v2.3h-3.3v10.9c0,0.7,0.1,1.2,0.4,1.6c0.3,0.4,0.8,0.5,1.5,0.5c0.3,0,0.8-0.1,1.4-0.2v2.4
		c-0.8,0.2-1.6,0.3-2.3,0.3c-1.3,0-2.4-0.4-3-1.2c-0.7-0.8-1-2-1-3.5v-10.9h-3.2v-2.3h3.2v-4.3H331.9z"/>
	<path class="st1" d="M344.4,138.3l4.1-13.2h3.2l-7.1,20.3c-1.1,2.9-2.8,4.4-5.2,4.4l-0.6,0l-1.1-0.2v-2.4l0.8,0.1
		c1,0,1.8-0.2,2.4-0.6c0.6-0.4,1-1.2,1.4-2.3l0.7-1.8l-6.3-17.4h3.3L344.4,138.3z"/>
</g>
</svg>
