<svg id="Layer_1" data-name="Layer 1" xmlns="http://www.w3.org/2000/svg" viewBox="0 0 225.73 154.59">
	<defs>
		<style>
			.cls-1{fill:#fff;}
		</style>
	</defs>
	<path class="cls-1" d="M29.29,42.28a12.43,12.43,0,0,1-9.43,3.8,12.31,12.31,0,0,1-9-3.66C7.46,39,7.56,34.86,7.56,29.09s-.1-9.95,3.28-13.33a12.16,12.16,0,0,1,9-3.66c7.74,0,11.68,5.07,12.58,10.7H25.86c-.75-3.15-2.67-4.88-6-4.88a5.42,5.42,0,0,0-4.18,1.78c-1.27,1.41-1.6,3-1.6,9.39s.33,8,1.6,9.43a5.39,5.39,0,0,0,4.18,1.74,6.1,6.1,0,0,0,4.64-1.88A6.42,6.42,0,0,0,26,33.92V32.66H19.86V27.21H32.48v4.88c0,4.84-.84,7.75-3.19,10.19" />
	<polygon class="cls-1" points="57.41 45.8 44.17 25.29 44.17 45.8 37.65 45.8 37.65 12.38 43.47 12.38 56.71 32.84 56.71 12.38 63.23 12.38 63.23 45.8 57.41 45.8" />
	<polygon class="cls-1" points="87.17 12.38 80.46 34.16 73.74 12.38 66.98 12.38 78.02 45.8 82.9 45.8 93.97 12.38 87.17 12.38" />
	<path class="cls-1" d="M123,13.11V24.63h-1.44c-.86-5.76-3.26-11.33-9.21-11.33C106.64,13.3,102,16.71,102,29s4.61,15.75,10.28,15.75c4.7,0,7-2.88,7-8.21,0-4.23-1.48-5.33-4.17-5.33h-1.3V29.91h13v1.34H125.7c-2.06,0-2.74.72-2.74,2.54V45.56h-1.2c-.77-1.35-1.2-2.12-1.73-2.12-.91,0-3.07,2.69-8.49,2.69-9,0-13.92-8.73-13.92-17.09S102.56,12,112.31,12c4,0,7.44,3.12,7.77,3.12a.51.51,0,0,0,.48-.24l1.06-1.72Z" />
	<path class="cls-1" d="M132.13,26.26c0-1.44-.77-1.92-3.79-1.92V23l7-.28v5.76h.1c1.1-2.79,2.83-6,6.29-6,1.92,0,3.69,1.15,3.69,3.31a2.15,2.15,0,0,1-2.2,2.35,2,2,0,0,1-2.21-2.16A2,2,0,0,1,142.21,24a.89.89,0,0,0-.72-.24c-1.25,0-4.18,1.44-5.43,7a56,56,0,0,0-.67,10.61c0,2.4.77,2.88,4.32,2.88v1.35H128.29V44.21c3.07,0,3.84-.48,3.84-1.92Z" />
	<path class="cls-1" d="M147.06,34.28c0-6,3.88-11.86,10.41-11.86s10.42,5.85,10.42,11.86S164,46.13,157.47,46.13,147.06,40.28,147.06,34.28Zm17.18,0c0-6.77-2.11-10.52-6.77-10.52s-6.77,3.75-6.77,10.52,2.11,10.51,6.77,10.51S164.24,41,164.24,34.28Z" />
	<path class="cls-1" d="M191.31,42.29c0,1.44.77,1.92,3.6,1.92v1.35l-6.86.28V42.29H188c-1.68,2.35-3.41,3.84-7.2,3.84-4.13,0-7.2-1.49-7.2-6.33V26.26c0-1.44-.77-1.92-3.79-1.92V23l7.05-.28V40.13c0,3.07,1.68,4.66,4.52,4.66,4,0,6.72-3.27,6.72-8.64V26.26c0-1.44-.77-1.92-3.79-1.92V23l7.05-.28Z" />
	<path class="cls-1" d="M200.29,26.26c0-1.44-.77-1.92-3.8-1.92V23l7-.28V27h.1c1.58-2.26,2.73-4.56,7-4.56,5.76,0,9.65,5.85,9.65,11.86s-3.89,11.85-10.42,11.85a7.31,7.31,0,0,1-6.19-3h-.1v7.34c0,1.44.77,1.92,3.94,1.92v1.35H196.16V52.37c3.36,0,4.13-.48,4.13-1.92Zm3.26,8c0,8.2,1.63,10.51,6.62,10.51,3.56,0,6.63-3,6.63-10.51s-3.07-10.52-6.63-10.52S203.55,26.74,203.55,34.28Z" />
	<path class="cls-1" d="M111.15,148.29C90.84,118.84,87.07,115.82,87.07,105a26.84,26.84,0,1,1,53.67,0c0,10.82-3.77,13.84-24.08,43.29a3.36,3.36,0,0,1-5.51,0Zm2.76-32.11A11.18,11.18,0,1,0,102.72,105,11.18,11.18,0,0,0,113.91,116.18Z" />
</svg>
