<?xml version="1.0" encoding="utf-8"?>
<!-- Generator: Adobe Illustrator 25.4.1, SVG Export Plug-In . SVG Version: 6.00 Build 0)  -->
<svg version="1.1" id="Layer_1" xmlns="http://www.w3.org/2000/svg" xmlns:xlink="http://www.w3.org/1999/xlink" x="0px" y="0px"
	 viewBox="0 0 225.7 154.6" style="enable-background:new 0 0 225.7 154.6;" xml:space="preserve">
<g>
	<g>
		<g>
			<path d="M29.3,42.3c-2.7,2.8-5.9,3.8-9.4,3.8c-3.7,0-6.7-1.3-9-3.7C7.5,39,7.6,34.9,7.6,29.1s-0.1-9.9,3.3-13.3
				c2.4-2.4,5.3-3.7,9-3.7c7.8,0,11.7,5.1,12.6,10.7h-6.6c-0.8-3.1-2.7-4.9-6-4.9c-1.8,0-3.2,0.7-4.2,1.8c-1.3,1.4-1.6,3-1.6,9.4
				s0.3,8,1.6,9.4c0.9,1.1,2.4,1.7,4.2,1.7c2,0,3.6-0.7,4.6-1.9c1.1-1.2,1.5-2.7,1.5-4.5v-1.3h-6.1v-5.4h12.6v4.9
				C32.5,36.9,31.6,39.8,29.3,42.3"/>
			<polygon points="57.4,45.8 44.2,25.3 44.2,45.8 37.7,45.8 37.7,12.4 43.5,12.4 56.7,32.8 56.7,12.4 63.2,12.4 63.2,45.8 			"/>
			<polygon points="87.2,12.4 80.5,34.2 73.7,12.4 67,12.4 78,45.8 82.9,45.8 94,12.4 			"/>
		</g>
	</g>
	<g>
		<path d="M123,13.1v11.5h-1.4c-0.9-5.8-3.3-11.3-9.2-11.3c-5.7,0-10.3,3.4-10.3,15.8s4.6,15.8,10.3,15.8c4.7,0,7-2.9,7-8.2
			c0-4.2-1.5-5.3-4.2-5.3h-1.3v-1.3h13v1.3h-1.2c-2.1,0-2.7,0.7-2.7,2.5v11.8h-1.2c-0.8-1.3-1.2-2.1-1.7-2.1c-0.9,0-3.1,2.7-8.5,2.7
			c-9,0-13.9-8.7-13.9-17.1S102.5,12,112.3,12c4,0,7.4,3.1,7.8,3.1c0.2,0,0.4-0.1,0.5-0.2l1.1-1.7C121.6,13.1,123,13.1,123,13.1z"/>
		<path d="M132.1,26.3c0-1.4-0.8-1.9-3.8-1.9V23l7.1-0.3v5.8h0.1c1.1-2.8,2.8-6.1,6.3-6.1c1.9,0,3.7,1.1,3.7,3.3
			c0,1.4-0.9,2.4-2.2,2.4s-2.2-0.7-2.2-2.2c0-0.9,0.4-1.5,1.1-1.9c-0.1-0.2-0.4-0.2-0.7-0.2c-1.2,0-4.2,1.4-5.4,7
			c-0.7,3-0.7,7.5-0.7,10.6c0,2.4,0.8,2.9,4.3,2.9v1.3h-11.4v-1.3c3.1,0,3.8-0.5,3.8-1.9L132.1,26.3L132.1,26.3z"/>
		<path d="M147.1,34.3c0-6,3.9-11.9,10.4-11.9s10.4,5.9,10.4,11.9s-3.9,11.9-10.4,11.9S147.1,40.3,147.1,34.3z M164.2,34.3
			c0-6.8-2.1-10.5-6.8-10.5s-6.8,3.7-6.8,10.5s2.1,10.5,6.8,10.5S164.2,41,164.2,34.3z"/>
		<path d="M191.3,42.3c0,1.4,0.8,1.9,3.6,1.9v1.3l-6.9,0.3v-3.5h-0.1c-1.7,2.3-3.4,3.8-7.2,3.8c-4.1,0-7.2-1.5-7.2-6.3V26.3
			c0-1.4-0.8-1.9-3.8-1.9V23l7.1-0.3v17.4c0,3.1,1.7,4.7,4.5,4.7c4,0,6.7-3.3,6.7-8.6v-9.9c0-1.4-0.8-1.9-3.8-1.9V23l7.1-0.3
			L191.3,42.3L191.3,42.3z"/>
		<path d="M200.3,26.3c0-1.4-0.8-1.9-3.8-1.9V23l7-0.3V27h0.1c1.6-2.3,2.7-4.6,7-4.6c5.8,0,9.6,5.9,9.6,11.9s-3.9,11.9-10.4,11.9
			c-2.6,0-4.8-1.1-6.2-3h-0.1v7.3c0,1.4,0.8,1.9,3.9,1.9v1.3h-11.3v-1.3c3.4,0,4.1-0.5,4.1-1.9L200.3,26.3L200.3,26.3z M203.6,34.3
			c0,8.2,1.6,10.5,6.6,10.5c3.6,0,6.6-3,6.6-10.5s-3.1-10.5-6.6-10.5C206.6,23.8,203.6,26.7,203.6,34.3z"/>
	</g>
</g>
<path d="M111.2,148.3c-20.3-29.4-24.1-32.5-24.1-43.3c0-14.8,12-26.8,26.8-26.8s26.8,12,26.8,26.8c0,10.8-3.8,13.8-24.1,43.3
	C115.3,150.2,112.5,150.2,111.2,148.3L111.2,148.3z M113.9,116.2c6.2,0,11.2-5,11.2-11.2c0-6.2-5-11.2-11.2-11.2
	c-6.2,0-11.2,5-11.2,11.2C102.7,111.2,107.7,116.2,113.9,116.2z"/>
</svg>
